# xmcd
#
# Track frame offsets: 
#        150
#        14988
#        25491
#        40635
#        56157
#        69095
#        83861
#        101460
#        112750
#        125878
#        142644
#        159301
#        170603
#        187804
#
# Disc length: 2672 seconds
#
# Revision: 0
# Processed by: cddbd v1.5.2PL0 Copyright (c) Steve Scherf et al.
# Submitted via: ExactAudioCopy v1.3
#
DISCID=b00a6e0e
DTITLE=Nico Brina - BoogieFul
DYEAR=2017
DGENRE=Boogie Woogie, Piano Blues
TTITLE0=Kansas City Donkey Stomp
TTITLE1=Cooee Corinne
TTITLE2=BoogieFul
TTITLE3=Who Cares, Just Boogie
TTITLE4=That's My Way
TTITLE5=Hot Pepper Jive
TTITLE6=Summerbreeze Blues
TTITLE7=Speedy Mouse Boogie
TTITLE8=StoMo Blues
TTITLE9=Barrel Of Monkeys
TTITLE10=Barons Blues
TTITLE11=Five O'Clock Morning Blues
TTITLE12=Tipsy Bounce
TTITLE13=Don't Mess Around With A Pianoman
EXTD=
EXTT0=
EXTT1=
EXTT2=
EXTT3=
EXTT4=
EXTT5=
EXTT6=
EXTT7=
EXTT8=
EXTT9=
EXTT10=
EXTT11=
EXTT12=
EXTT13=
PLAYORDER=
